Coordinates
version=1
nRows=45
nColumns=13
inDegrees=yes

Units are S.I. units (second, meters, Newtons, ...)
Angles are in degrees.

endheader
time	pelvis_tilt	pelvis_list	pelvis_rotation	pelvis_tx	pelvis_ty	pelvis_tz	hip_flexion_r	hip_adduction_r	hip_rotation_r	knee_angle_r	ankle_angle_r	subtalar_angle_r
      0.00000000	    -10.56893464	     -2.93529992	      8.82049183	     -0.66087496	      0.84483476	     -0.09026290	     38.32499873	      1.92982351	     -8.57227083	     -9.96975087	      1.54021746	     -2.73850297
      0.01000000	    -10.21896990	     -3.13529639	      8.37927144	     -0.64332772	      0.84510419	     -0.08889696	     37.73711019	      2.67873633	     -7.60369631	    -11.07413826	     -1.53006864	     -3.83098303
      0.02000000	    -10.06270091	     -3.44220276	      7.93139553	     -0.62584922	      0.84572621	     -0.08712930	     37.23979971	      3.54356274	     -6.47421697	    -11.98852428	     -4.36747698	     -5.29723619
      0.03000000	    -10.03487673	     -3.81607416	      7.43692837	     -0.60865317	      0.84663985	     -0.08497655	     36.95552272	      4.46956504	     -5.65421362	    -13.41690484	     -5.02730474	     -4.68811696
      0.04000000	     -9.94346740	     -4.19932247	      6.89759723	     -0.59161346	      0.84783753	     -0.08265954	     36.73945730	      5.36140123	     -5.12661874	    -15.17571475	     -5.34688038	     -3.95807612
      0.05000000	     -9.71088724	     -4.60965878	      6.31035493	     -0.57479668	      0.84932385	     -0.08049224	     36.41562819	      6.29388354	     -4.63943696	    -16.95785141	     -5.81961058	     -4.53523615
      0.06000000	     -9.48058091	     -5.17312586	      5.86250062	     -0.55856504	      0.85070366	     -0.07872779	     36.11086529	      7.22184372	     -4.70253825	    -18.78482585	     -5.16733675	     -4.62543949
      0.07000000	     -9.23098663	     -5.67420573	      5.32313542	     -0.54276257	      0.85211640	     -0.07703335	     35.67803010	      8.13532943	     -4.80689627	    -20.54236417	     -3.37165585	     -3.79163905
      0.08000000	     -9.02138465	     -6.14955858	      4.69659085	     -0.52743559	      0.85344898	     -0.07542875	     35.09976804	      9.04995894	     -4.89326684	    -21.92849033	     -1.42489052	     -2.77756302
      0.09000000	     -8.87295725	     -6.62221412	      4.06500885	     -0.51267286	      0.85458883	     -0.07397908	     34.36226239	      9.91227928	     -5.10388843	    -22.82193543	      0.23444157	     -2.05911147
      0.10000000	     -8.79763364	     -7.14478912	      3.44537926	     -0.49837163	      0.85554755	     -0.07248397	     33.49304684	     10.80908936	     -5.37096994	    -23.28461513	      1.91457999	     -1.25553804
      0.11000000	     -8.78706239	     -7.68242330	      2.87531582	     -0.48442485	      0.85641696	     -0.07090742	     32.52861581	     11.69247926	     -5.68039045	    -23.40946755	      3.60221614	     -0.31650490
      0.12000000	     -8.86318659	     -8.13730193	      2.39618151	     -0.47079352	      0.85727918	     -0.06928914	     31.55050675	     12.45112431	     -5.99928298	    -23.31553141	      5.10700894	      0.41927659
      0.13000000	     -8.99564020	     -8.43716962	      1.99185206	     -0.45736804	      0.85831633	     -0.06764404	     30.54120548	     13.06129313	     -6.15587559	    -23.07376645	      6.49578839	      0.99247271
      0.14000000	     -9.17829973	     -8.51979212	      1.67717726	     -0.44398896	      0.85972078	     -0.06608424	     29.51337382	     13.46269637	     -6.03814269	    -22.73431918	      7.54389762	      1.18804874
      0.15000000	     -9.50965587	     -8.47262873	      1.44744466	     -0.43063228	      0.86132209	     -0.06453052	     28.61397632	     13.75788884	     -5.65553890	    -22.35945662	      8.22978625	      0.78197402
      0.16000000	     -9.93523715	     -8.33926063	      1.24889799	     -0.41723446	      0.86317940	     -0.06309325	     27.71541337	     13.96267907	     -5.14196147	    -21.80212689	      8.54067183	      0.20441343
      0.17000000	    -10.33128991	     -8.04278009	      1.09961047	     -0.40385039	      0.86512902	     -0.06190883	     26.74331245	     14.00269460	     -4.36433690	    -21.20508881	      8.63814718	     -0.64640915
      0.18000000	    -10.60908015	     -7.65354436	      0.98794421	     -0.39042372	      0.86728945	     -0.06094593	     25.60264135	     13.90192477	     -3.63753219	    -20.52105429	      8.86805284	     -1.37963256
      0.19000000	    -10.75550605	     -7.16592927	      0.88234470	     -0.37695822	      0.86964049	     -0.06023401	     24.27983576	     13.65892286	     -2.96187100	    -19.75646759	      9.20165624	     -1.96179189
      0.20000000	    -10.82744457	     -6.60884634	      0.75182388	     -0.36342221	      0.87201526	     -0.05968994	     22.81778124	     13.31214357	     -2.23713309	    -18.90900008	      9.47191919	     -2.37112935
      0.21000000	    -10.85639024	     -6.02804887	      0.61018665	     -0.34983213	      0.87429855	     -0.05927725	     21.24789562	     12.91434307	     -1.53368779	    -17.91873771	      9.63694115	     -2.91156785
      0.22000000	    -10.84232589	     -5.46281293	      0.46548874	     -0.33620598	      0.87640182	     -0.05904422	     19.59915927	     12.49788228	     -0.95749391	    -16.83233888	      9.84728572	     -3.48264538
      0.23000000	    -10.81144765	     -4.97133190	      0.32036893	     -0.32255344	      0.87828792	     -0.05898741	     17.92571789	     12.11346722	     -0.31176817	    -15.73988541	      9.99056681	     -3.63761393
      0.24000000	    -10.77269239	     -4.61183380	      0.17955926	     -0.30887165	      0.87991173	     -0.05902373	     16.25054273	     11.84646448	      0.53640815	    -14.65636270	      9.77636239	     -4.08975197
      0.25000000	    -10.76989308	     -4.26507506	      0.04054154	     -0.29519418	      0.88108723	     -0.05916747	     14.65879545	     11.55337701	      1.14680804	    -13.59429686	      9.67054265	     -4.47649531
      0.26000000	    -10.81743587	     -3.91600152	     -0.10456072	     -0.28151057	      0.88178058	     -0.05933961	     13.14137478	     11.26138251	      1.64772833	    -12.54856340	      9.70958923	     -5.22192570
      0.27000000	    -10.91491599	     -3.60592958	     -0.25803217	     -0.26792147	      0.88210000	     -0.05961652	     11.73893912	     10.97610101	      2.04028610	    -11.58193437	      9.68060580	     -5.71573809
      0.28000000	    -11.00910486	     -3.33565973	     -0.41370646	     -0.25439152	      0.88210165	     -0.05999816	     10.34695085	     10.71008706	      2.33893094	    -10.58886519	      9.63951168	     -6.10174713
      0.29000000	    -11.03419396	     -3.15797204	     -0.51875901	     -0.24061670	      0.88180773	     -0.06039478	      8.85324722	     10.53312211	      2.55204311	     -9.54153291	      9.48761356	     -6.65274519
      0.30000000	    -11.07364419	     -3.02837343	     -0.60563285	     -0.22685319	      0.88114681	     -0.06089301	      7.44981440	     10.37799122	      2.42810558	     -8.64517329	      9.70143145	     -6.69865327
      0.31000000	    -11.02620453	     -2.94553337	     -0.62653627	     -0.21287317	      0.88019723	     -0.06157168	      5.95471522	     10.24443690	      2.20140871	     -7.79458476	     10.09789678	     -6.54010071
      0.32000000	    -10.91801030	     -2.87440422	     -0.66230504	     -0.19872998	      0.87890004	     -0.06233867	      4.38599838	     10.14425926	      2.12366151	     -6.91081638	     10.18176529	     -6.90351799
      0.33000000	    -10.83089721	     -2.78542974	     -0.89802368	     -0.18467211	      0.87723261	     -0.06283841	      3.00584575	     10.05386379	      1.86137950	     -6.34711319	     10.61081736	     -6.88048052
      0.34000000	    -10.65820554	     -2.81280265	     -1.18211478	     -0.17013792	      0.87533046	     -0.06329426	      1.56906282	     10.09089502	      1.64583801	     -5.96344615	     11.05008457	     -6.85412535
      0.35000000	    -10.44853947	     -2.89428902	     -1.53103050	     -0.15548907	      0.87325943	     -0.06369991	      0.17159751	     10.18930252	      1.63416151	     -5.78996641	     11.31948851	     -7.08691237
      0.36000000	    -10.22524207	     -3.02328850	     -1.94012599	     -0.14063243	      0.87100964	     -0.06407320	     -1.18905574	     10.32353051	      1.70045444	     -5.77333181	     11.54012083	     -7.36151927
      0.37000000	    -10.05168481	     -3.16114428	     -2.42908977	     -0.12574239	      0.86862834	     -0.06441319	     -2.42001642	     10.42923696	      1.95212096	     -5.94163136	     11.75651905	     -7.58737779
      0.38000000	    -10.01942202	     -3.31932789	     -2.96462964	     -0.11091302	      0.86599988	     -0.06474327	     -3.38991061	     10.51462265	      2.30765368	     -6.35733564	     12.09471673	     -7.56562378
      0.39000000	    -10.08169983	     -3.45633226	     -3.55926535	     -0.09599461	      0.86336073	     -0.06513236	     -4.16891328	     10.51829087	      2.60567056	     -6.95358994	     12.56631568	     -7.08075435
      0.40000000	    -10.25694108	     -3.56034463	     -4.15925869	     -0.08099476	      0.86078214	     -0.06563805	     -4.70629791	     10.42143709	      2.68820073	     -7.76753095	     13.26347732	     -6.04030917
      0.41000000	    -10.52532240	     -3.57626229	     -4.75858236	     -0.06590464	      0.85823608	     -0.06628352	     -5.03255216	     10.17607691	      2.73346202	     -8.79465927	     13.97042644	     -4.72762922
      0.42000000	    -10.80124857	     -3.50689477	     -5.36746883	     -0.05050334	      0.85576301	     -0.06699356	     -5.32438745	      9.81454159	      2.95755749	     -9.89119774	     14.40048495	     -3.26185501
      0.43000000	    -10.99467576	     -3.46391623	     -5.93690561	     -0.03464176	      0.85348076	     -0.06775607	     -5.67794040	      9.44842444	      3.18770343	    -11.05891708	     14.74681898	     -1.65811660
      0.44000000	    -11.08709120	     -3.39030422	     -6.43732689	     -0.01867758	      0.85148756	     -0.06864506	     -6.03108963	      9.01692698	      3.33057653	    -12.38240085	     15.04677291	      0.20438325
